<svg xmlns="http://www.w3.org/2000/svg" width="149" height="24"><path fill="#0270E6" fill-rule="evenodd" d="M48.974 28.198A5.608 5.608 0 0 1 54.4 24a5.608 5.608 0 0 1 5.426 4.198h-1.189a4.416 4.416 0 1 1-8.353 0h8.353a4.42 4.42 0 0 0-8.353 0h-1.31a5.593 5.593 0 0 0 .196 3.41c.263.794 1.51 4.056 5.32 7.971 0 0 5.382-5.536 5.507-9.652l-.004.007a5.593 5.593 0 0 0-.167-1.735h8.043a.93.93 0 0 1 .931.93V43.07a.93.93 0 0 1-.93.93H40.93a.931.931 0 0 1-.931-.93V29.129a.93.93 0 0 1 .931-.93h8.043m42.075 14.889c-1.55.333-2.947.5-4.19.5-1.244 0-2.238-.152-2.984-.456a3.674 3.674 0 0 1-1.755-1.457c-.424-.667-.717-1.448-.878-2.347-.16-.898-.241-2.028-.241-3.39 0-2.855.406-4.843 1.217-5.966.812-1.123 2.308-1.685 4.487-1.685 1.258 0 2.713.196 4.366.587l-.088 2.39c-1.448-.217-2.65-.325-3.609-.325-.958 0-1.642.127-2.051.38-.41.254-.713.735-.91 1.446-.198.71-.297 1.92-.297 3.629 0 1.71.201 2.894.604 3.553.402.66 1.206.989 2.413.989 1.207 0 2.49-.101 3.85-.304l.066 2.456zm2.156.226V32.448h2.94v10.866h-2.94zm0-12.257V28.1h2.94v2.956h-2.94zm11.814 4.03h-2.699v4.456c0 .435.011.743.033.924a.75.75 0 0 0 .242.467c.138.13.354.196.647.196l1.667-.044.132 2.326c-.98.217-1.726.326-2.238.326-1.316 0-2.216-.294-2.698-.88-.483-.587-.724-1.67-.724-3.25v-4.52h-1.295V32.61h1.295v-3.02h2.94v3.021h2.698v2.477zm.765-2.522h2.896l1.997 8.389h.504l1.996-8.39h2.896l-3.86 15.431h-2.875l1.207-4.564h-2.062l-2.7-10.866zm16.85-1.67c-1.594 0-2.391.522-2.391 1.565 0 .463.196.819.592 1.065.394.246 1.32.602 2.775 1.065 1.455.464 2.475.989 3.06 1.575.585.588.878 1.49.878 2.707 0 1.55-.475 2.724-1.426 3.52-.95.797-2.194 1.196-3.73 1.196-1.14 0-2.538-.174-4.19-.522l-.79-.152.307-2.326c1.96.261 3.46.392 4.498.392 1.55 0 2.326-.638 2.326-1.913 0-.464-.18-.826-.538-1.086-.358-.261-1.071-.544-2.14-.848-1.696-.478-2.891-1.047-3.586-1.706-.695-.66-1.043-1.576-1.043-2.75 0-1.477.454-2.578 1.36-3.303.908-.725 2.15-1.087 3.73-1.087 1.083 0 2.458.145 4.125.435l.79.152-.241 2.369c-2.063-.232-3.518-.348-4.366-.348zm12.987 4.192h-2.698v4.456c0 .435.011.743.033.924.022.18.103.337.241.467.14.13.355.196.648.196l1.667-.044.132 2.326c-.98.217-1.726.326-2.238.326-1.316 0-2.216-.294-2.698-.88-.483-.587-.724-1.67-.724-3.25v-4.52h-1.295V32.61h1.295v-3.02h2.94v3.021h2.697v2.477zm10.455.757v4.52c.03.348.088.591.176.729.087.137.27.235.548.293l-.088 2.195c-.745 0-1.342-.05-1.788-.152a4.038 4.038 0 0 1-1.349-.608c-1.052.507-2.128.76-3.224.76-2.268 0-3.401-1.188-3.401-3.564 0-1.159.314-1.982.943-2.467.629-.485 1.594-.771 2.896-.858l2.347-.174v-.674c0-.45-.102-.757-.306-.924-.205-.166-.534-.25-.988-.25l-4.124.174-.089-2.02c1.566-.421 3.054-.631 4.465-.631 1.412 0 2.429.29 3.05.87.622.579.932 1.506.932 2.78zm-4.936 2.869c-.819.072-1.228.507-1.228 1.304s.358 1.196 1.074 1.196c.556 0 1.163-.088 1.822-.262l.328-.087V38.54l-1.996.174zm15.521-3.565c-1.814-.231-3.082-.348-3.806-.348-.724 0-1.192.066-1.404.196-.212.13-.318.337-.318.62 0 .282.142.478.427.586.285.11 1.017.268 2.194.478 1.178.21 2.015.555 2.513 1.033.496.478.745 1.253.745 2.325 0 2.348-1.47 3.521-4.41 3.521-.965 0-2.135-.13-3.51-.39l-.702-.131.088-2.435c1.813.232 3.075.348 3.784.348.71 0 1.192-.068 1.448-.206.256-.138.385-.345.385-.62s-.136-.478-.406-.608c-.271-.13-.973-.29-2.106-.478-1.134-.189-1.979-.507-2.535-.957-.555-.449-.833-1.25-.833-2.401 0-1.152.394-2.021 1.184-2.608.79-.587 1.807-.88 3.05-.88.863 0 2.04.137 3.532.413l.724.13-.044 2.412zm5.383 8.166h-2.94V28.101h2.94v4.868c1.01-.521 1.916-.782 2.72-.782 1.463 0 2.472.428 3.028 1.283.556.854.834 2.172.834 3.955v5.89h-2.94V37.49c0-.913-.11-1.59-.329-2.032-.22-.442-.658-.663-1.316-.663-.57 0-1.142.087-1.712.26l-.285.088v8.171zm12.2-2.743c.343.297.837.446 1.48.446 1.36 0 2.575-.044 3.642-.13l.615-.066.043 2.152c-1.682.405-3.203.608-4.563.608-1.652 0-2.852-.435-3.598-1.304-.746-.87-1.118-2.282-1.118-4.238 0-3.898 1.616-5.846 4.847-5.846 3.19 0 4.783 1.637 4.783 4.911l-.219 2.022h-6.45c.015.666.194 1.148.537 1.445zm3.235-3.662c0-.87-.139-1.474-.416-1.815-.278-.34-.764-.51-1.46-.51-.694 0-1.184.177-1.47.532-.284.355-.435.953-.449 1.793h3.795zm5.094 6.411V32.454h2.918v1.152c1.229-.725 2.399-1.196 3.51-1.413v2.934c-1.184.246-2.201.5-3.05.76l-.438.153v7.28h-2.94z" transform="translate(-40 -24)"></path></svg>